<svg xmlns="http://www.w3.org/2000/svg" version="1.1" xmlns:xlink="http://www.w3.org/1999/xlink" width="512" height="512" x="0" y="0" viewBox="0 0 512 512" style="enable-background:new 0 0 512 512" xml:space="preserve" class=""><g><linearGradient id="a" x1="376.27" x2="135.74" y1="376.27" y2="135.74" gradientUnits="userSpaceOnUse"><stop offset="0" stop-color="#ef3739"></stop><stop offset=".54" stop-color="#ef3739"></stop><stop offset="1" stop-color="#ff8c8b"></stop></linearGradient><linearGradient id="b" x1="326.21" x2="185.8" y1="326.2" y2="185.8" gradientUnits="userSpaceOnUse"><stop offset="0" stop-color="#ffd2d2"></stop><stop offset=".57" stop-color="#fff"></stop><stop offset="1" stop-color="#fff"></stop></linearGradient><g data-name="Layer 14"><path fill="#ffe5e5" d="M496.53 129.86C483.09 80.39 431.64 28.93 382.16 15.49 351.82 7.93 311.18.14 256 0c-55.16.14-95.8 7.93-126.14 15.49C80.39 28.93 28.93 80.38 15.49 129.86 7.93 160.19.14 200.84 0 256c.14 55.17 7.93 95.81 15.49 126.15 13.44 49.48 64.9 100.93 114.37 114.37 30.34 7.56 71 15.35 126.15 15.48 55.16-.13 95.81-7.92 126.15-15.48 49.48-13.44 100.93-64.89 114.37-114.37 7.56-30.34 15.35-71 15.48-126.15-.13-55.16-7.92-95.8-15.48-126.14z" opacity="1" data-original="#ffe5e5" class=""></path><path fill="url(#a)" d="M256 85.93A170.08 170.08 0 1 0 426.08 256 170.08 170.08 0 0 0 256 85.93z" opacity="1" data-original="url(#a)" class=""></path><path fill="url(#b)" d="m282.65 256 43.56-43.55a18.86 18.86 0 0 0 0-26.65 18.86 18.86 0 0 0-26.65 0L256 229.36l-43.55-43.56a18.84 18.84 0 0 0-26.65 26.65L229.36 256l-43.56 43.56a18.85 18.85 0 0 0 0 26.64 18.84 18.84 0 0 0 26.65 0L256 282.65l43.55 43.55a18.84 18.84 0 1 0 26.65-26.64z" opacity="1" data-original="url(#b)"></path></g></g></svg>
